<svg id="Layer_1" enable-background="new 0 0 510 510" height="512" viewBox="0 0 510 510" width="512" xmlns="http://www.w3.org/2000/svg"><g id="XMLID_601_"><g id="XMLID_33_"><path id="XMLID_544_" d="m360 165 45 10 45-10v-15-15l-45-10-45 10v15z" fill="#3c3a41"/><path id="XMLID_543_" d="m510 135v-67.5-67.5h-105-105v67.5 67.5h105z" fill="#ffdd54"/><path id="XMLID_552_" d="m0 360v75 45l127.5 10 127.5-10 10-45-10-75-127.5-10z" fill="#98f9ff"/><path id="XMLID_551_" d="m510 360-127.5-10-127.5 10v75 45l127.5 10 127.5-10v-45z" fill="#7dd5f4"/><path id="XMLID_549_" d="m105 165h-15-15-37.5-37.5v97.5 97.5h127.5 127.5l10-97.5-10-97.5h-75z" fill="#787780"/><path id="XMLID_547_" d="m510 165h-127.5-127.5v97.5 97.5h127.5 127.5v-97.5z" fill="#57555c"/><g fill="#98f9ff"><path id="XMLID_534_" d="m360 315h15 15v-15-15h-15-15v15z"/><path id="XMLID_533_" d="m420 315h15 15v-15-15h-15-15v15z"/><path id="XMLID_532_" d="m360 255h15 15v-15-15h-15-15v15z"/><path id="XMLID_457_" d="m420 255h15 15v-15-15h-15-15v15z"/></g><path id="XMLID_557_" d="m210 285-67.5 10-67.5-10v-240h135z" fill="#f4f4f6"/><path id="XMLID_553_" d="m30 285h225v30h-225z" fill="#3c3a41"/><path id="XMLID_455_" d="m240 405h-15-15c0 24.813 20.187 45 45 45l10-15-10-15c-4.136 0-7.886-1.682-10.602-4.398-2.715-2.716-4.398-6.466-4.398-10.602z" fill="#7dd5f4"/><path id="XMLID_376_" d="m300 405h-15-15c0 4.136-1.682 7.886-4.398 10.602s-6.466 4.398-10.602 4.398v15 15c12.407 0 23.657-5.046 31.805-13.195 8.148-8.148 13.195-19.398 13.195-31.805z" fill="#6ba7ff"/><path id="XMLID_545_" d="m75 420h105v30h-105z" fill="#7dd5f4"/><path id="XMLID_374_" d="m330 450h52.5 52.5v-15-15h-52.5-52.5v15z" fill="#6ba7ff"/><path id="XMLID_540_" d="m120 90h45v30h-45z" fill="#787780"/><path id="XMLID_538_" d="m120 150h45v30h-45z" fill="#787780"/><path id="XMLID_536_" d="m120 210h45v30h-45z" fill="#787780"/></g><path id="XMLID_600_" d="m255 510h-255v-30h255l10 15z" fill="#7dd5f4"/><path id="XMLID_562_" d="m255 480h255v30h-255z" fill="#6ba7ff"/></g></svg>