<svg height="512" viewBox="0 0 64 64" width="512" xmlns="http://www.w3.org/2000/svg"><g id="Maintenance_tools" data-name="Maintenance tools"><path d="m33.81 10.98-1.42-2.83-6.36-3.53-1.41 1.41 3.53 6.36 2.83 1.42 14.141 14.141 2.83-2.831z" fill="#ff6243"/><path d="m26.03 6.62 6.36 3.53 1.42 2.83 13.141 13.14 1-1-14.141-14.14-1.42-2.83-6.36-3.53-1.41 1.41.714 1.286z" fill="#ff5023"/><path d="m32.588 24.694a8.006 8.006 0 0 0 -8.563 11.038l5.247-5.247 3.536.707.707 3.536-5.247 5.247a8.006 8.006 0 0 0 11.038-8.563 4.133 4.133 0 0 1 1.1-3.571l7.435-7.441a4.134 4.134 0 0 1 3.571-1.1 8.006 8.006 0 0 0 8.563-11.032l-5.247 5.247-3.536-.707-.707-3.536 5.247-5.247a8.006 8.006 0 0 0 -11.038 8.563 4.134 4.134 0 0 1 -1.1 3.571l-2.3 2.3.006.006-.006-.006-2.83 2.83.006.006-.006-.006-2.3 2.3a4.133 4.133 0 0 1 -3.576 1.105z" fill="#ff9811"/><path d="m59.975 8.268-1.545 1.545a7.953 7.953 0 0 1 -6.848 9.508 8 8 0 0 0 8.393-11.053z" fill="#ee8700"/><path d="m49.412 19.306a4.134 4.134 0 0 0 -3.571 1.1l-7.441 7.435a4.133 4.133 0 0 0 -1.1 3.571 7.965 7.965 0 0 1 -6.952 9.116 7.99 7.99 0 0 0 8.952-9.116 4.133 4.133 0 0 1 1.1-3.571l7.441-7.441a3.906 3.906 0 0 1 2.084-1.049c-.171-.013-.343-.02-.513-.045z" fill="#ee8700"/><path d="m53.021 38.678a4 4 0 0 0 5.657-5.657l-6.486-6.485-5.656 5.656z" fill="#005ece"/><path d="m46.536 32.192 5.656-5.656a2 2 0 0 0 -2.828-2.829l-5.657 5.657a2 2 0 1 0 2.829 2.828z" fill="#004fac"/><path d="m11 61h8v-3-12-3h-8v2 14z" fill="#006df0"/><path d="m3 45h8v14h-8z" fill="#004fac"/><path d="m60.28 45.4a2.994 2.994 0 0 0 -4.09-1.1l-10.67 6.16h-.005a2.987 2.987 0 0 0 -2.094-2.06l-14.92-4a6 6 0 0 0 -3.008-.025l-6.493 1.625v12l2.733 1.367a6.007 6.007 0 0 0 2.683.633h14.977a5.993 5.993 0 0 0 3-.8l16.8-9.7a3 3 0 0 0 1.087-4.1z" fill="#ffbcab"/><path d="m8 45h3v14h-3z" fill="#00479b"/><path d="m45.591 50.776c-.017.1-.022.2-.049.3a3 3 0 0 1 -3.674 2.124l-8.621-2.31-2.126-.569-.316.915 11.063 2.964a2.985 2.985 0 0 0 3.723-3.419z" fill="#ff9478"/></g></svg>